<svg viewBox="0 0 24 24" width="1em" height="1em" xmlns="http://www.w3.org/2000/svg" fill-rule="evenodd" clip-rule="evenodd" stroke-linejoin="round" stroke-miterlimit="2"><path d="M20.75 13.25h-2.5a1.25 1.25 0 0 1 0-2.5h2.5a1.25 1.25 0 0 1 0 2.5zm-3.447-4.785a1.25 1.25 0 1 1-1.768-1.768l1.768-1.769a1.253 1.253 0 0 1 1.769 0c.486.49.486 1.28 0 1.769l-1.769 1.768zM12 22a1.25 1.25 0 0 1-1.25-1.25v-2.5a1.25 1.25 0 0 1 2.5 0v2.5c0 .692-.56 1.25-1.25 1.25zm0-15a1.25 1.25 0 0 1-1.25-1.25v-2.5a1.25 1.25 0 1 1 2.5 0v2.5C13.25 6.442 12.69 7 12 7zM6.697 19.072a1.253 1.253 0 0 1-1.769 0 1.253 1.253 0 0 1 0-1.769l1.769-1.766a1.25 1.25 0 0 1 1.768 1.766l-1.768 1.769zm0-10.607L4.928 6.697a1.253 1.253 0 0 1 0-1.769 1.253 1.253 0 0 1 1.769 0l1.768 1.769a1.25 1.25 0 1 1-1.768 1.768zM7 12c0 .69-.56 1.25-1.25 1.25h-2.5a1.25 1.25 0 0 1 0-2.5h2.5c.69 0 1.25.56 1.25 1.25zm10.303 3.537l1.769 1.766c.486.49.486 1.28 0 1.769a1.253 1.253 0 0 1-1.769 0l-1.768-1.769a1.25 1.25 0 0 1 1.768-1.767z" fill-rule="nonzero"/></svg>