<svg viewBox="0 0 172 188" xmlns="http://www.w3.org/2000/svg" fill-rule="evenodd" clip-rule="evenodd" stroke-linejoin="round" stroke-miterlimit="2"><path d="M171.349 93.559l-85.674 55.739L0 93.559V62.038a18.027 18.027 0 0 1 8.196-15.11L75.845 2.916a18.027 18.027 0 0 1 19.66 0l67.649 44.012a18.028 18.028 0 0 1 8.195 15.11v31.521zm-139.61-20.65L85.675 108l53.935-35.091-53.935-35.09-53.936 35.09z" fill="#0764ff"/><path d="M85.675 79.117V37.819l85.674 55.74v8.066a18.026 18.026 0 0 1-27.856 15.109L85.675 79.117z" fill="#9cc1ff"/><path d="M139.61 114.208L85.675 79.117l-53.936 35.091 53.936 35.09 53.935-35.09zm31.739 10.871a18.028 18.028 0 0 1-8.195 15.11l-67.649 44.012a18.027 18.027 0 0 1-19.66 0L8.196 140.189A18.027 18.027 0 0 1 0 125.079v-31.52l85.675-55.74 85.674 55.74v31.52z" fill="#9cc1ff"/><path d="M85.675 108v41.298l85.674-55.739v-8.067a18.026 18.026 0 0 0-27.856-15.109L85.675 108z" fill="#0764ff"/></svg>